<?xml version="1.0" encoding="UTF-8" standalone="no"?>
<!-- Created with Inkscape (http://www.inkscape.org/) -->

<svg
   xmlns:dc="http://purl.org/dc/elements/1.1/"
   xmlns:cc="http://creativecommons.org/ns#"
   xmlns:rdf="http://www.w3.org/1999/02/22-rdf-syntax-ns#"
   xmlns:svg="http://www.w3.org/2000/svg"
   xmlns="http://www.w3.org/2000/svg"
   xmlns:xlink="http://www.w3.org/1999/xlink"
   xmlns:sodipodi="http://sodipodi.sourceforge.net/DTD/sodipodi-0.dtd"
   xmlns:inkscape="http://www.inkscape.org/namespaces/inkscape"
   width="1920"
   height="1080"
   id="svg2"
   version="1.1"
   inkscape:version="0.48.0 r9654"
   sodipodi:docname="Double_Spiral_HD1080.svg">
  <defs
     id="defs4">
    <clipPath
       clipPathUnits="userSpaceOnUse"
       id="clipPath3005">
      <circle
         id="r3"
         cx="0"
         cy="0"
         r="500"
         sodipodi:cx="0"
         sodipodi:cy="0"
         sodipodi:rx="500"
         sodipodi:ry="500"
         style="fill:#ffffff;stroke-width:0" />
    </clipPath>
    <clipPath
       clipPathUnits="userSpaceOnUse"
       id="clipPath3006">
      <circle
         id="circle7"
         cx="0"
         cy="0"
         r="500"
         sodipodi:cx="0"
         sodipodi:cy="0"
         sodipodi:rx="250"
         sodipodi:ry="250"
         style="fill:#ffffff;stroke-width:0" />
    </clipPath>
  </defs>
  <sodipodi:namedview
     id="base"
     pagecolor="#ffffff"
     bordercolor="#666666"
     borderopacity="1.0"
     inkscape:pageopacity="0.0"
     inkscape:pageshadow="2"
     inkscape:zoom="0.7"
     inkscape:cx="455.06866"
     inkscape:cy="591.83019"
     inkscape:document-units="px"
     inkscape:current-layer="svg2"
     showgrid="false"
     showborder="true"
     fit-margin-top="0"
     fit-margin-left="0"
     fit-margin-right="0"
     fit-margin-bottom="0"
     inkscape:window-x="-8"
     inkscape:window-y="-8"
     inkscape:window-maximized="1"
     inkscape:window-width="1280"
     inkscape:window-height="962" />
  <metadata
     id="metadata7">
    <rdf:RDF>
      <cc:Work
         rdf:about="">
        <dc:format>image/svg+xml</dc:format>
        <dc:type
           rdf:resource="http://purl.org/dc/dcmitype/StillImage" />
        <dc:title />
      </cc:Work>
    </rdf:RDF>
  </metadata>
  <a
     xlink:href="http://www.hypnobeast.com"
     id="a10"
     transform="translate(460,40)">
    <g
       id="layer1"
       transform="matrix(2,0,0,2,500,500)">
      <g
         id="g2996">
        <circle
           id="circle15"
           cx="0"
           cy="0"
           r="1000"
           d="M 1000,0 C 1000,552.28475 552.28475,1000 0,1000 -552.28475,1000 -1000,552.28475 -1000,0 c 0,-552.28475 447.71525,-1000 1000,-1000 552.28475,0 1000,447.71525 1000,1000 z"
           sodipodi:cx="0"
           sodipodi:cy="0"
           sodipodi:rx="1000"
           sodipodi:ry="1000"
           style="fill:#ffffff;stroke-width:1" />
        <path
           style="fill:#060606"
           d="m -1217.1428,750.95018 0,-35.6978 7.8014,12.4478 c 10.5492,16.8318 18.7797,29.0306 29.7038,44.0249 5.0397,6.9175 9.4893,13.105 9.888,13.75 0.5467,0.8847 -5.1864,1.1728 -23.3342,1.1728 l -24.059,0 0,-35.6977 z m 158.3272,24.4477 c -69.0075,-77.8384 -120.9537,-168.4993 -152.7231,-266.54544 l -5.6041,-17.2953 0,-199.75683 0,-199.756783 5.8644,-15.44786 c 22.4697,-59.18916 54.7897,-113.84008 96.9571,-163.94784 13.935,-16.559047 50.4224,-52.905857 66.6785,-66.421477 87.27951,-72.56621 188.49579,-116.1594 298.48906,-128.55733 82.15249,-9.25983 150.92029,-1.19924 219.01086,25.67128 79.8469,31.50991 148.98407,87.31538 196.74607,158.807527 53.41444,79.95296 78.64478,179.38209 68.6399,270.499993 -11.77353,107.22559 -80.01271,202.95937 -177.88597,249.55892 -53.80358,25.617 -113.85834,35.9002 -168.5,28.8522 -76.47274,-9.8639 -144.56402,-57.9853 -179.77532,-127.05057 -16.60779,-32.57537 -24.64779,-63.56141 -25.91098,-99.86055 -1.41293,-40.60188 8.24125,-75.62438 29.68278,-107.68027 30.74489,-45.964773 79.48389,-74.309413 135.61332,-78.867263 50.03962,-4.06334 96.56935,18.12498 123.95728,59.11067 14.56116,21.790593 21.1417,42.466933 22.0993,69.436863 0.44408,12.50731 0.205,16.58092 -1.43873,24.51334 -8.89818,42.94145 -43.12234,74.57124 -86.58821,80.02436 -16.85607,2.11472 -30.71162,-0.0498 -45.13944,-7.05183 -19.66404,-9.54318 -34.64065,-28.02138 -40.10839,-49.48587 -2.65348,-10.41666 -2.40378,-27.01351 0.5341,-35.5 3.25559,-9.40427 8.17706,-16.93137 15.62671,-23.90016 11.59541,-10.84693 24.28148,-15.57251 39.93343,-14.87528 11.93503,0.53167 18.70722,3.20809 26.59457,10.51038 10.07968,9.33201 14.01026,18.14333 14.05282,31.50274 0.0197,6.1743 -0.48249,8.84544 -2.48539,13.22034 -5.29653,11.56915 -16.23119,18.48068 -29.43536,18.60537 -5.58293,0.0527 -6.2918,0.23607 -4.21249,1.08957 3.86528,1.58659 15.89012,0.47662 20.5,-1.8923 5.65362,-2.90526 11.77548,-9.44376 14.99155,-16.01183 12.16302,-24.84014 -2.35656,-53.24835 -31.0331,-60.71764 -7.75938,-2.02106 -22.58271,-1.98027 -29.52695,0.0812 -16.03325,4.75974 -28.52238,15.56632 -36.27454,31.38756 -6.28935,12.83583 -8.01221,20.03512 -8.01686,33.5 -0.005,13.11366 2.37595,22.88285 8.39288,34.44341 10.41672,20.01402 30.40867,35.00971 55.69332,41.77479 8.45171,2.26131 11.8026,2.61815 24.7737,2.63818 16.40832,0.0254 22.61139,-1.05661 36.23731,-6.32062 29.19165,-11.2774 53.0829,-38.17373 63.56906,-71.56488 4.91911,-15.66397 6.00571,-22.95287 6.0332,-40.47088 0.0378,-24.09583 -3.62348,-39.63414 -14.3735,-61 -6.6283,-13.173893 -13.7605,-22.959233 -24.41697,-33.500003 -12.15591,-12.02388 -23.97826,-20.19801 -42.0491,-29.07327 -26.86943,-13.19657 -46.91172,-17.82205 -77.5,-17.88595 -20.30524,-0.0424 -26.63293,0.68078 -44.18301,5.04969 -37.69552,9.38391 -72.72907,32.38099 -96.82481,63.55873 -19.49537,25.225263 -36.27065,61.190243 -42.86077,91.890363 -5.29741,24.67804 -6.7131,57.47176 -3.54503,82.11875 7.78532,60.56822 40.44572,117.89078 88.65706,155.60276 49.47715,38.7022 112.11554,61.9379 175.69409,65.1738 81.02658,4.1239 158.34344,-21.5969 220.06246,-73.2077 65.92874,-55.13098 115.37012,-148.4082 128.92198,-243.22712 3.10064,-21.6944 4.0568,-36.04512 4.06429,-61 0.0141,-46.948773 -6.68944,-89.150403 -21.06582,-132.618583 -37.44599,-113.221137 -116.33291,-199.795927 -235.42044,-258.363157 -132.19127,-65.01167 -283.9274,-75.39805 -424,-29.02291 -110.62692,36.62628 -203.53742,103.65005 -274.48022,198.00466 -8.0011,10.64143 -29.7584,42.737057 -37.284,54.999997 l -3.6822,6 -0.027,-63.657987 -0.027,-63.65799 18.25,-18.34526 c 38.1348,-38.33385 77.1602,-70.19388 121.738,-99.38603 59.5107,-38.97116 130.70807,-71.91121 196.51197,-90.91794 125.30847,-36.19395 257.58956,-28.10147 377.8985,23.11847 12.72776,5.41868 42.15603,19.73574 51.4878,25.04918 72.47849,41.26876 129.01823,90.40061 176.68679,153.53719 44.60265,59.07581 78.1065,128.603197 94.95571,197.0527571 12.9861,52.7560699 15.1005,113.3956329 5.8824,168.7076029 -18.27201,109.63844 -80.43379,209.01105 -171.41121,274.02022 -40.46337,28.9137 -92.01978,52.9559 -137.23733,63.9976 -58.55879,14.2996 -120.56818,11.6453 -176.76261,-7.5661 -36.57645,-12.5045 -67.73545,-29.6372 -97.88406,-53.8214 -60.39274,-48.4449 -102.91569,-122.17048 -112.25764,-194.63032 -1.79152,-13.89573 -1.5201,-44.07855 0.52606,-58.5 7.16009,-50.46466 29.1646,-96.38148 63.65137,-132.821323 31.24147,-33.01075 75.94972,-58.4020299 118.43163,-67.26120943 15.37083,-3.20542997 39.68641,-4.28005997 55.26643,-2.44249997 39.08732,4.61007 74.9029,21.4093894 102.78038,48.2092094 12.20978,11.73778 18.10209,18.66001 26.23094,30.81582 9.5971,14.35144 19.04977,35.420543 23.10551,51.500003 18.07928,71.6774 -25.5516,145.04878 -96.78274,162.7536 -12.21564,3.03625 -33.0206,3.01021 -45.37486,-0.0568 -40.37155,-10.02241 -70.7118,-42.56785 -75.88151,-81.39672 -3.23278,-24.28085 7.31157,-50.91138 26.42163,-66.72977 7.11375,-5.88842 21.59421,-13.2587 29.76686,-15.15077 7.53187,-1.74372 20.56321,-1.47691 27.63527,0.56583 20.8305,6.01681 37.17589,23.68883 40.64553,43.94442 3.08691,18.02128 -6.95353,36.78375 -24.00697,44.86159 -5.88321,2.78674 -7.82567,3.20664 -14.77383,3.19366 -9.5296,-0.0178 -15.00374,-2.14289 -21.90373,-8.50308 -4.5424,-4.18703 -9.59627,-13.06688 -9.59627,-16.86102 0,-1.1016 -0.46061,-2.28758 -1.02359,-2.63552 -0.67345,-0.41621 -0.80351,0.84635 -0.38023,3.69099 3.40799,22.90292 29.35013,34.37063 52.36902,23.14969 6.7129,-3.27232 15.86512,-12.19522 18.79707,-18.3261 15.52467,-32.46302 -4.44426,-70.97033 -40.76227,-78.60433 -11.92605,-2.50684 -28.18296,-1.54726 -39.26121,2.31742 -11.29486,3.94025 -18.4214,8.22588 -27.0834,16.28691 -16.72767,15.56712 -24.60142,35.43989 -24.63803,62.18462 -0.027,19.71089 4.42431,35.99195 14.16994,51.82806 15.60402,25.3557 41.18795,42.05715 72.8518,47.55841 14.35854,2.49465 41.05516,1.56567 54.18163,-1.88538 38.79067,-10.19838 69.84034,-35.05661 87.43934,-70.00357 5.05844,-10.04471 10.9323,-28.43803 13.29925,-41.64503 12.09755,-67.50152 -15.98381,-136.254303 -72.00544,-176.293963 -11.14739,-7.9672394 -33.7592,-19.4507294 -46.45388,-23.591779 -12.47526,-4.069481 -27.90515,-7.722151 -41.5,-9.824181 -16.0797,-2.48624 -51.00295,-2.464 -67,0.0427 -35.36931,5.54219 -67.87304,18.0900806 -97.08193,37.47796 -57.98803,38.49047 -93.36738,95.728443 -105.79085,171.152153 -12.79476,77.67788 4.35537,157.81074 47.93639,223.97962 13.07211,19.8473 23.74573,32.9108 40.89647,50.0533 42.42405,42.4038 89.99812,68.8563 152.53992,84.8167 111.67285,28.49834 230.66893,9.4993 328.60265,-52.4649 50.45941,-31.9265 92.62457,-73.1081 125.30774,-122.38472 12.10311,-18.2479 16.73721,-26.28158 26.82281,-46.5 24.5678,-49.25064 40.9681,-108.46788 48.3279,-174.5 2.193,-19.67551 3.0459,-73.078873 1.5047,-94.217583 -8.4586,-116.01811 -50.5346,-223.805787 -122.44755,-313.678527 -49.52102,-61.88853 -109.26585,-110.843 -180.61825,-147.99724 l -15.5,-8.07108 63.90283,-0.0178 63.90283,-0.0178 14.09717,11.37641 c 49.6572,40.07336 91.85996,83.63099 129.68227,133.84554 43.0481,57.15251 72.715498,115.29884 92.249698,180.803877 35.94045,120.52139 30.36655,249.868893 -15.8357,367.474183 -37.939898,96.57409 -101.749708,180.67904 -184.093158,242.64524 -64.07634,48.2197 -134.54954,76.36454 -212.90594,85.02804 -7.67064,0.8481 -24.08613,1.3121 -45.5,1.2861 -36.07298,-0.044 -51.01047,-1.3634 -80,-7.0666 -87.20225,-17.1559 -168.28675,-62.18364 -227.61191,-126.39714 -53.93652,-58.3808 -82.95282,-119.06186 -91.56887,-191.49564 -1.89289,-15.91322 -1.5871,-56.65735 0.54788,-73 9.44187,-72.27496 40.47938,-135.674043 91.06131,-186.007343 35.40995,-35.235879 71.62691,-57.11292 114.07159,-68.90552 66.08679,-18.3612 139.73506,-6.17101 196.5,32.524501 26.5833,18.1212896 53.74093,46.473469 68.15361,71.151369 25.76041,44.107933 31.6432,96.678523 16.23863,145.114013 -4.5861,14.41976 -15.58258,36.60886 -24.09659,48.62298 -9.02056,12.72891 -31.15147,34.7408 -43.07684,42.84518 -25.03855,17.01597 -53.40646,25.22454 -82.21881,23.79092 -33.45938,-1.66484 -62.50544,-13.94061 -86.08987,-36.38425 -30.66632,-29.18299 -42.01884,-64.97205 -32.50555,-102.47452 4.76422,-18.78112 13.93087,-34.194 28.57282,-48.04254 12.69769,-12.00965 23.92631,-18.11738 39.3445,-21.40118 9.79138,-2.08539 26.68996,-1.3058 36.1781,1.66901 33.12642,10.38613 54.02933,39.54742 49.69461,69.32813 -2.5747,17.68894 -14.73393,34.76829 -29.84892,41.92701 -6.43515,3.0478 -7.50848,3.24224 -17.89755,3.24224 -10.76027,0 -11.25255,-0.0992 -18.65805,-3.75918 -13.72002,-6.7808 -21.79009,-18.53617 -21.79009,-31.74082 0,-16.96142 14.17696,-32.19042 28.58257,-30.70363 6.3852,0.65901 12.85341,3.85875 17.3058,8.56097 l 3.38837,3.57849 -1.67425,-3.23763 c -2.26076,-4.37184 -8.66862,-8.83219 -14.47863,-10.07822 -5.54364,-1.18889 -15.42632,0.66106 -20.55567,3.84785 -7.91981,4.92046 -13.93486,14.1136 -15.17419,23.19155 -1.48861,10.90386 4.21773,25.54325 13.13245,33.6908 8.30255,7.58807 15.05833,10.42864 26.03105,10.94517 17.19184,0.80929 30.03394,-4.15303 41.94532,-16.20807 11.90494,-12.04853 17.21059,-26.21389 16.13838,-43.08728 -2.04706,-32.21469 -22.418,-57.90874 -53.6412,-67.65814 -10.42966,-3.25664 -33.39286,-3.25018 -45.5,0.0128 -21.28232,5.73578 -42.74807,20.22692 -55.29488,37.32858 -13.34513,18.18979 -19.20512,36.73346 -19.20512,60.77374 0,25.72798 6.80264,48.84595 20.75782,70.54302 26.94883,41.89918 74.05667,64.78451 124.81896,60.63795 24.56489,-2.0066 44.76898,-7.65208 66.92322,-18.69985 18.04599,-8.9991 29.61252,-17.4864 45.52648,-33.40644 20.0621,-20.06979 33.57067,-41.33639 42.26097,-66.53166 7.85672,-22.7785 10.23506,-39.72199 9.38364,-66.84998 -1.13194,-36.06637 -8.55916,-65.419223 -24.73656,-97.760483 -31.00762,-61.989289 -87.8722,-107.3996 -155.13746,-123.88801 -21.65212,-5.30749 -32.01996,-6.44588 -58.29707,-6.40105 -35.72146,0.0609 -62.85605,4.31215 -96,15.04045 -116.29099,37.64199 -200.85422,140.34481 -215.94911,262.272193 -6.17079,49.84388 -10e-4,110.0548 16.81797,164.13556 26.76049,86.04556 83.08032,163.80866 157.24741,217.118 32.90874,23.6539 78.5352,46.6147 116.88373,58.8201 66.61734,21.2027 140.42364,25.3787 219.5,12.4193 95.14226,-15.5923 184.32115,-55.3352 259.97109,-115.85734 79.26001,-63.4103 139.381908,-146.26179 175.644958,-242.04874 l 5.3,-14 0.042,75.32034 0.042,75.3203 -9.5771,15.0317 c -43.08095,67.6184 -88.525548,117.3834 -146.922448,160.89084 -75.53592,56.2765 -169.19501,93.9943 -263,105.9138 -47.14856,5.991 -97.49934,6.1487 -142.5,0.4463 -95.56625,-12.1101 -186.01537,-48.1293 -263.0001,-104.7334 -91.4848,-67.26564 -152.31263,-169.31494 -167.90482,-281.68986 -4.5735,-32.96234 -5.232,-75.42247 -1.636,-105.5 9.3579,-78.27049 36.67435,-146.306763 83.9132,-209.000003 12.12626,-16.0934294 41.17782,-45.09966 57.6195,-57.5296 48.215,-36.45066 102.83387,-57.974577 162.50812,-64.040357 14.99223,-1.52393 47.60096,-1.52998 61.5,-0.0114 71.73169,7.83724 138.01494,38.003947 183.54618,83.535187 18.88511,18.8851106 32.95778,38.34175 44.4541,61.4615 10.97975,22.08091 17.60971,42.35173 22.15946,67.751553 2.01031,11.22297 2.29873,16.0953 2.29873,38.83312 0,22.73782 -0.28842,27.61015 -2.29873,38.83312 -6.99217,39.03511 -21.27112,72.51864 -43.881,102.89908 -50.35956,67.66711 -142.46993,90.46468 -219.05771,54.21738 -38.85259,-18.38808 -64.41632,-45.9684 -76.73612,-82.78945 -4.91386,-14.68639 -6.7774,-26.67046 -6.71145,-43.16013 0.0871,-21.77303 4.35051,-39.90684 13.8254,-58.80413 15.1554,-30.22681 37.79394,-49.34009 67.92462,-57.347453 8.68158,-2.30717 11.9235,-2.65131 24.97652,-2.65131 13.03621,0 16.29985,0.34552 24.92862,2.63916 39.52352,10.505853 64.48773,39.842003 64.81313,76.163733 0.14292,15.95204 -3.47167,28.73238 -11.7372,41.5 -10.7441,16.59624 -26.12292,25.7297 -45.00455,26.72816 -21.38991,1.13109 -41.19185,-9.20035 -49.33404,-25.73948 -7.70075,-15.64244 -5.39742,-34.54398 5.75773,-47.24899 9.24289,-10.52707 27.6924,-12.95581 40.38001,-5.31573 6.59107,3.96893 6.5167,1.9703 -0.0895,-2.40547 -13.09866,-8.67619 -30.32755,-6.01235 -43.00559,6.6493 -14.42082,14.40218 -16.19246,35.36658 -4.60473,54.48925 12.9606,21.38824 40.58033,31.38622 64.89612,23.49152 11.42276,-3.70866 19.82801,-8.97419 28.99984,-18.16715 24.77797,-24.83504 29.20355,-58.5509 11.97423,-91.22465 -22.78879,-43.216763 -73.01749,-63.438063 -119.69116,-48.185823 -46.25513,15.115473 -81.07828,55.847913 -89.37924,104.546393 -2.45289,14.39013 -1.52065,39.22158 1.99681,53.18789 7.50379,29.79422 23.10363,56.78356 46.06716,79.70095 15.71605,15.68445 27.43272,24.21079 46.03236,33.49818 15.82574,7.9023 30.09979,12.85163 46.66621,16.18086 9.61705,1.93266 14.51467,2.28048 32.33379,2.29623 23.51468,0.0208 32.75032,-1.2275 52,-7.0283 76.21155,-22.96596 136.53911,-85.03308 158.49008,-163.0602 14.51937,-51.61062 10.96451,-104.23514 -10.63211,-157.392943 -22.58138,-55.5817094 -60.79917,-104.05668 -109.35797,-138.70829 -43.40787,-30.975907 -93.75963,-50.295617 -148.40756,-56.943207 -17.3717,-2.11317 -52.64757,-2.10765 -70.18488,0.011 -85.97283,10.38607 -177.21456,58.266497 -239.55066,125.707707 -87.30072,94.45036 -127.48592,219.054943 -110.85212,343.725403 11.9109,89.27231 55.8643,184.87791 121.01762,263.23205 13.23725,15.9193 51.84417,54.6148 67.59663,67.7517 78.96156,65.8507 170.75909,108.4331 269.88097,125.1906 95.32754,16.116 191.07512,7.5172 284.12271,-25.5162 81.0506,-28.7742 153.52149,-68.9286 219.640688,-121.6976 22.5075,-17.9631 37.1666,-31.1353 60.98655,-54.8003 l 21.7501,-21.60864 0,63.26804 0,63.2678 -13.2501,10.3976 c -44.13795,34.636 -93.199348,64.9223 -143.468448,88.5649 l -15.21841,7.1576 -303.6969,0 -303.6969,0 -16.42875,-8.5305 c -38.98419,-20.2421 -75.47692,-45.0921 -109.0102,-74.2312 -16.38918,-14.2416 -47.73339,-46.1193 -61.142,-62.1828 -71.05526,-85.12414 -115.97056,-188.94764 -128.50976,-297.05566 -5.4789,-47.237 -4.5358,-103.81189 2.4923,-149.5 9.8281,-63.89094 29.315,-122.248583 56.8418,-170.224843 65.177,-113.59628 180.51632,-190.821717 311.00203,-208.231387 45.8425,-6.1164 90.7226,-4.63106 137.08529,4.53694 30.03057,5.93839 57.93042,14.60334 82.02638,25.47518 92.07142,41.54165 159.34178,126.268627 179.39201,225.944107 4.60777,22.90657 5.91329,36.705093 5.91329,62.500003 0,41.21779 -6.89269,78.78616 -20.8239,113.5 -43.701,108.89433 -162.34288,169.93152 -276.10603,142.04704 -48.46628,-11.87956 -84.96385,-36.73582 -110.92912,-75.54704 -30.67463,-45.85048 -38.41299,-103.08654 -20.98073,-155.18209 15.13404,-45.22743 52.39707,-78.483593 99.5081,-88.808063 11.81791,-2.58992 35.6492,-3.1177 48.13114,-1.06594 38.13026,6.26779 65.63826,26.26053 80.82761,58.745293 6.78631,14.51358 8.47166,22.82742 8.47571,41.8108 0.003,12.8217 -0.39768,17.94903 -1.79617,23 -6.05907,21.88383 -16.47528,37.00599 -32.82913,47.66106 -12.74315,8.30257 -26.22477,12.32493 -41.30916,12.32493 -29.19866,0 -51.35826,-15.10774 -60.11709,-40.98599 -2.60739,-7.7036 -2.59966,-25.33603 0.0145,-33 2.75938,-8.08986 5.98292,-13.12379 12.12195,-18.92982 11.95191,-11.30363 30.30154,-14.50472 45.54802,-7.94587 6.58955,2.83475 14.19847,11.17072 16.53425,18.11415 4.12411,12.25946 0.82307,26.54379 -7.53298,32.59688 -4.88325,3.53741 -12.68446,5.61365 -18.27506,4.8638 -2.62301,-0.35183 -3.69423,-0.19982 -3.06018,0.43423 1.87674,1.87674 12.53502,1.28052 16.89792,-0.94527 5.76165,-2.93937 12.88765,-11.22369 14.92145,-17.3469 2.27774,-6.85761 1.5981,-17.71255 -1.48574,-23.7299 -3.18524,-6.21522 -10.74533,-13.39723 -18.19177,-17.28201 -6.14358,-3.20509 -6.79309,-3.326 -17.87523,-3.32761 -10.91293,-0.002 -11.85202,0.16503 -18.3956,3.26392 -4.85809,2.30067 -8.84706,5.25771 -13.5,10.00757 -29.01118,29.61553 -17.60619,76.0632 23.3956,95.28032 11.82925,5.54425 21.27738,7.32543 35.3899,6.67177 21.07122,-0.97597 37.33843,-8.82127 53.74668,-25.92081 34.39405,-35.84307 36.38311,-92.10972 4.65785,-131.76141 -19.54399,-24.426913 -46.67353,-40.961613 -78.29447,-47.718293 -12.01356,-2.56702 -40.08573,-2.5357 -52,0.058 -29.09643,6.33425 -53.43068,20.57888 -76.5,44.781063 -26.20823,27.49524 -42.97225,63.50026 -47.52023,102.06187 -1.71942,14.57868 -0.80398,39.01332 1.99136,53.15286 7.1846,36.3414 23.95861,67.0395 52.99478,96.98565 35.9026,37.02776 82.77015,61.13553 134.53409,69.20163 14.01084,2.1833 42.44203,2.9472 57,1.5316 33.30108,-3.2381 67.72566,-14.1351 95.34987,-30.18265 55.59244,-32.29498 102.8423,-87.17014 128.04332,-148.70724 32.85616,-80.2298 32.183,-167.277173 -1.90904,-246.8621124 -10.62048,-24.7925506 -27.50814,-52.2551006 -47.56236,-77.3454106 -13.8922,-17.38088 -46.13832,-49.614387 -63.42179,-63.397007 -65.88325,-52.53828 -144.03823,-83.92061 -228,-91.55105 -17.24124,-1.56688 -60.55007,-1.30972 -77.77844,0.46184 -79.74194,8.19969 -151.28246,36.58524 -216.0538,85.7249 -109.72768,83.246437 -184.81548,203.642077 -211.58888,339.26131 -3.2104,16.26249 -6.0172,35.32378 -8.2459,56 -2.4386,22.62247 -2.4401,83.35377 0,106 7.1106,66.06562 22.5398,123.36322 48.6051,180.50002 39.2209,85.97464 110.6121,174.32044 195.75932,242.25004 l 13.47473,10.75 -63.9343,0 -63.93425,0 -9.9737,-11.25 z m 428.14725,-568.32966 c -3.18382,-3.27591 -5.00758,-6.33614 -6.40653,-10.75 -1.55835,-4.91683 -1.96708,-5.54656 -2.01183,-3.09971 -0.0822,4.49398 4.86291,13.54238 8.84171,16.17827 1.86884,1.23807 3.53955,2.25104 3.7127,2.25104 0.17315,0 -1.68808,-2.06082 -4.13605,-4.5796 z m 38.48393,-24.9204 c 0.006,-2.2 -0.46408,-4.675 -1.04463,-5.5 -0.80497,-1.14393 -0.95654,-0.69713 -0.63848,1.88216 0.38816,3.14784 -0.3416,8.92301 -1.72079,13.61784 -0.32314,1.1 0.30808,0.2 1.40273,-2 1.09464,-2.2 1.99517,-5.8 2.00117,-8 z m -21.99364,6.56574 c 0.56935,-1.06384 1.03518,-2.1567 1.03518,-2.42857 0,-0.82991 -3.0873,-3.63717 -4,-3.63717 -0.47143,0 -1.56429,0.70714 -2.42857,1.57143 -0.86429,0.86428 -1.57143,1.95714 -1.57143,2.42857 0,1.3534 3.0014,4 4.53624,4 0.76637,0 1.85923,-0.87042 2.42858,-1.93426 z m -19.9387,-17.08434 c 1.69897,-1.20977 2.85037,-2.43824 2.55867,-2.72994 -1.06068,-1.06069 -7.65414,4.96414 -9.59402,8.76663 -3.09403,6.0648 -2.32422,7.09603 0.98716,1.3224 1.62754,-2.83773 4.34923,-6.14932 6.04819,-7.35909 z M -17.897232,-117.5437 c -0.135,-0.93034 -3.1922,-10.56705 -6.7935,-21.41489 -32.06055,-96.5716 -83.360748,-185.78347 -150.311248,-261.39359 -4.1396,-4.675 -8.4182,-9.5125 -9.508,-10.75 l -1.98151,-2.25 61.11961,0 61.119698,0 9.2667,12.75 c 10.82815,14.8985 25.91725,37.3067 32.92525,48.89594 l 4.9258,8.14594 -0.2584,113.85406 c -0.1422,62.61974 -0.3693,113.09288 -0.5044,112.16254 z m -1199.245568,-242.25137 0,-53.55711 86.75,0.003 86.75,0.003 -26,12.8281 c -53.045,26.17178 -93.3545,51.6277 -140.25,88.56945 l -7.25,5.71116 0,-53.55712 z"
           id="path2998"
           inkscape:connector-curvature="0"
           transform="translate(617,-187)" />
        <animateTransform
           attributeName="transform"
           type="rotate"
           dur="7s"
           from="0"
           to="360"
           repeatCount="indefinite"
           id="animateTransform9" />
      </g>
    </g>
    <g
       id="layer2"
       transform="matrix(0.25,0,0,0.25,500,500)"
       clip-path="url(#clipPath3005)">
      <g
         id="g13">
        <circle
           id="circle21"
           cx="0"
           cy="0"
           r="1000"
           d="M 1000,0 C 1000,552.28475 552.28475,1000 0,1000 -552.28475,1000 -1000,552.28475 -1000,0 c 0,-552.28475 447.71525,-1000 1000,-1000 552.28475,0 1000,447.71525 1000,1000 z"
           sodipodi:cx="0"
           sodipodi:cy="0"
           sodipodi:rx="1000"
           sodipodi:ry="1000"
           style="fill:#ffffff;stroke-width:1" />
        <path
           style="fill:#060606"
           d="m -1217.1428,750.95018 0,-35.6978 7.8014,12.4478 c 10.5492,16.8318 18.7797,29.0306 29.7038,44.0249 5.0397,6.9175 9.4893,13.105 9.888,13.75 0.5467,0.8847 -5.1864,1.1728 -23.3342,1.1728 l -24.059,0 0,-35.6977 z m 158.3272,24.4477 c -69.0075,-77.8384 -120.9537,-168.4993 -152.7231,-266.54544 l -5.6041,-17.2953 0,-199.75683 0,-199.756783 5.8644,-15.44786 c 22.4697,-59.18916 54.7897,-113.84008 96.9571,-163.94784 13.935,-16.559047 50.4224,-52.905857 66.6785,-66.421477 87.27951,-72.56621 188.49579,-116.1594 298.48906,-128.55733 82.15249,-9.25983 150.92029,-1.19924 219.01086,25.67128 79.8469,31.50991 148.98407,87.31538 196.74607,158.807527 53.41444,79.95296 78.64478,179.38209 68.6399,270.499993 -11.77353,107.22559 -80.01271,202.95937 -177.88597,249.55892 -53.80358,25.617 -113.85834,35.9002 -168.5,28.8522 -76.47274,-9.8639 -144.56402,-57.9853 -179.77532,-127.05057 -16.60779,-32.57537 -24.64779,-63.56141 -25.91098,-99.86055 -1.41293,-40.60188 8.24125,-75.62438 29.68278,-107.68027 30.74489,-45.964773 79.48389,-74.309413 135.61332,-78.867263 50.03962,-4.06334 96.56935,18.12498 123.95728,59.11067 14.56116,21.790593 21.1417,42.466933 22.0993,69.436863 0.44408,12.50731 0.205,16.58092 -1.43873,24.51334 -8.89818,42.94145 -43.12234,74.57124 -86.58821,80.02436 -16.85607,2.11472 -30.71162,-0.0498 -45.13944,-7.05183 -19.66404,-9.54318 -34.64065,-28.02138 -40.10839,-49.48587 -2.65348,-10.41666 -2.40378,-27.01351 0.5341,-35.5 3.25559,-9.40427 8.17706,-16.93137 15.62671,-23.90016 11.59541,-10.84693 24.28148,-15.57251 39.93343,-14.87528 11.93503,0.53167 18.70722,3.20809 26.59457,10.51038 10.07968,9.33201 14.01026,18.14333 14.05282,31.50274 0.0197,6.1743 -0.48249,8.84544 -2.48539,13.22034 -5.29653,11.56915 -16.23119,18.48068 -29.43536,18.60537 -5.58293,0.0527 -6.2918,0.23607 -4.21249,1.08957 3.86528,1.58659 15.89012,0.47662 20.5,-1.8923 5.65362,-2.90526 11.77548,-9.44376 14.99155,-16.01183 12.16302,-24.84014 -2.35656,-53.24835 -31.0331,-60.71764 -7.75938,-2.02106 -22.58271,-1.98027 -29.52695,0.0812 -16.03325,4.75974 -28.52238,15.56632 -36.27454,31.38756 -6.28935,12.83583 -8.01221,20.03512 -8.01686,33.5 -0.005,13.11366 2.37595,22.88285 8.39288,34.44341 10.41672,20.01402 30.40867,35.00971 55.69332,41.77479 8.45171,2.26131 11.8026,2.61815 24.7737,2.63818 16.40832,0.0254 22.61139,-1.05661 36.23731,-6.32062 29.19165,-11.2774 53.0829,-38.17373 63.56906,-71.56488 4.91911,-15.66397 6.00571,-22.95287 6.0332,-40.47088 0.0378,-24.09583 -3.62348,-39.63414 -14.3735,-61 -6.6283,-13.173893 -13.7605,-22.959233 -24.41697,-33.500003 -12.15591,-12.02388 -23.97826,-20.19801 -42.0491,-29.07327 -26.86943,-13.19657 -46.91172,-17.82205 -77.5,-17.88595 -20.30524,-0.0424 -26.63293,0.68078 -44.18301,5.04969 -37.69552,9.38391 -72.72907,32.38099 -96.82481,63.55873 -19.49537,25.225263 -36.27065,61.190243 -42.86077,91.890363 -5.29741,24.67804 -6.7131,57.47176 -3.54503,82.11875 7.78532,60.56822 40.44572,117.89078 88.65706,155.60276 49.47715,38.7022 112.11554,61.9379 175.69409,65.1738 81.02658,4.1239 158.34344,-21.5969 220.06246,-73.2077 65.92874,-55.13098 115.37012,-148.4082 128.92198,-243.22712 3.10064,-21.6944 4.0568,-36.04512 4.06429,-61 0.0141,-46.948773 -6.68944,-89.150403 -21.06582,-132.618583 -37.44599,-113.221137 -116.33291,-199.795927 -235.42044,-258.363157 -132.19127,-65.01167 -283.9274,-75.39805 -424,-29.02291 -110.62692,36.62628 -203.53742,103.65005 -274.48022,198.00466 -8.0011,10.64143 -29.7584,42.737057 -37.284,54.999997 l -3.6822,6 -0.027,-63.657987 -0.027,-63.65799 18.25,-18.34526 c 38.1348,-38.33385 77.1602,-70.19388 121.738,-99.38603 59.5107,-38.97116 130.70807,-71.91121 196.51197,-90.91794 125.30847,-36.19395 257.58956,-28.10147 377.8985,23.11847 12.72776,5.41868 42.15603,19.73574 51.4878,25.04918 72.47849,41.26876 129.01823,90.40061 176.68679,153.53719 44.60265,59.07581 78.1065,128.603197 94.95571,197.0527571 12.9861,52.7560699 15.1005,113.3956329 5.8824,168.7076029 -18.27201,109.63844 -80.43379,209.01105 -171.41121,274.02022 -40.46337,28.9137 -92.01978,52.9559 -137.23733,63.9976 -58.55879,14.2996 -120.56818,11.6453 -176.76261,-7.5661 -36.57645,-12.5045 -67.73545,-29.6372 -97.88406,-53.8214 -60.39274,-48.4449 -102.91569,-122.17048 -112.25764,-194.63032 -1.79152,-13.89573 -1.5201,-44.07855 0.52606,-58.5 7.16009,-50.46466 29.1646,-96.38148 63.65137,-132.821323 31.24147,-33.01075 75.94972,-58.4020299 118.43163,-67.26120943 15.37083,-3.20542997 39.68641,-4.28005997 55.26643,-2.44249997 39.08732,4.61007 74.9029,21.4093894 102.78038,48.2092094 12.20978,11.73778 18.10209,18.66001 26.23094,30.81582 9.5971,14.35144 19.04977,35.420543 23.10551,51.500003 18.07928,71.6774 -25.5516,145.04878 -96.78274,162.7536 -12.21564,3.03625 -33.0206,3.01021 -45.37486,-0.0568 -40.37155,-10.02241 -70.7118,-42.56785 -75.88151,-81.39672 -3.23278,-24.28085 7.31157,-50.91138 26.42163,-66.72977 7.11375,-5.88842 21.59421,-13.2587 29.76686,-15.15077 7.53187,-1.74372 20.56321,-1.47691 27.63527,0.56583 20.8305,6.01681 37.17589,23.68883 40.64553,43.94442 3.08691,18.02128 -6.95353,36.78375 -24.00697,44.86159 -5.88321,2.78674 -7.82567,3.20664 -14.77383,3.19366 -9.5296,-0.0178 -15.00374,-2.14289 -21.90373,-8.50308 -4.5424,-4.18703 -9.59627,-13.06688 -9.59627,-16.86102 0,-1.1016 -0.46061,-2.28758 -1.02359,-2.63552 -0.67345,-0.41621 -0.80351,0.84635 -0.38023,3.69099 3.40799,22.90292 29.35013,34.37063 52.36902,23.14969 6.7129,-3.27232 15.86512,-12.19522 18.79707,-18.3261 15.52467,-32.46302 -4.44426,-70.97033 -40.76227,-78.60433 -11.92605,-2.50684 -28.18296,-1.54726 -39.26121,2.31742 -11.29486,3.94025 -18.4214,8.22588 -27.0834,16.28691 -16.72767,15.56712 -24.60142,35.43989 -24.63803,62.18462 -0.027,19.71089 4.42431,35.99195 14.16994,51.82806 15.60402,25.3557 41.18795,42.05715 72.8518,47.55841 14.35854,2.49465 41.05516,1.56567 54.18163,-1.88538 38.79067,-10.19838 69.84034,-35.05661 87.43934,-70.00357 5.05844,-10.04471 10.9323,-28.43803 13.29925,-41.64503 12.09755,-67.50152 -15.98381,-136.254303 -72.00544,-176.293963 -11.14739,-7.9672394 -33.7592,-19.4507294 -46.45388,-23.591779 -12.47526,-4.069481 -27.90515,-7.722151 -41.5,-9.824181 -16.0797,-2.48624 -51.00295,-2.464 -67,0.0427 -35.36931,5.54219 -67.87304,18.0900806 -97.08193,37.47796 -57.98803,38.49047 -93.36738,95.728443 -105.79085,171.152153 -12.79476,77.67788 4.35537,157.81074 47.93639,223.97962 13.07211,19.8473 23.74573,32.9108 40.89647,50.0533 42.42405,42.4038 89.99812,68.8563 152.53992,84.8167 111.67285,28.49834 230.66893,9.4993 328.60265,-52.4649 50.45941,-31.9265 92.62457,-73.1081 125.30774,-122.38472 12.10311,-18.2479 16.73721,-26.28158 26.82281,-46.5 24.5678,-49.25064 40.9681,-108.46788 48.3279,-174.5 2.193,-19.67551 3.0459,-73.078873 1.5047,-94.217583 -8.4586,-116.01811 -50.5346,-223.805787 -122.44755,-313.678527 -49.52102,-61.88853 -109.26585,-110.843 -180.61825,-147.99724 l -15.5,-8.07108 63.90283,-0.0178 63.90283,-0.0178 14.09717,11.37641 c 49.6572,40.07336 91.85996,83.63099 129.68227,133.84554 43.0481,57.15251 72.715498,115.29884 92.249698,180.803877 35.94045,120.52139 30.36655,249.868893 -15.8357,367.474183 -37.939898,96.57409 -101.749708,180.67904 -184.093158,242.64524 -64.07634,48.2197 -134.54954,76.36454 -212.90594,85.02804 -7.67064,0.8481 -24.08613,1.3121 -45.5,1.2861 -36.07298,-0.044 -51.01047,-1.3634 -80,-7.0666 -87.20225,-17.1559 -168.28675,-62.18364 -227.61191,-126.39714 -53.93652,-58.3808 -82.95282,-119.06186 -91.56887,-191.49564 -1.89289,-15.91322 -1.5871,-56.65735 0.54788,-73 9.44187,-72.27496 40.47938,-135.674043 91.06131,-186.007343 35.40995,-35.235879 71.62691,-57.11292 114.07159,-68.90552 66.08679,-18.3612 139.73506,-6.17101 196.5,32.524501 26.5833,18.1212896 53.74093,46.473469 68.15361,71.151369 25.76041,44.107933 31.6432,96.678523 16.23863,145.114013 -4.5861,14.41976 -15.58258,36.60886 -24.09659,48.62298 -9.02056,12.72891 -31.15147,34.7408 -43.07684,42.84518 -25.03855,17.01597 -53.40646,25.22454 -82.21881,23.79092 -33.45938,-1.66484 -62.50544,-13.94061 -86.08987,-36.38425 -30.66632,-29.18299 -42.01884,-64.97205 -32.50555,-102.47452 4.76422,-18.78112 13.93087,-34.194 28.57282,-48.04254 12.69769,-12.00965 23.92631,-18.11738 39.3445,-21.40118 9.79138,-2.08539 26.68996,-1.3058 36.1781,1.66901 33.12642,10.38613 54.02933,39.54742 49.69461,69.32813 -2.5747,17.68894 -14.73393,34.76829 -29.84892,41.92701 -6.43515,3.0478 -7.50848,3.24224 -17.89755,3.24224 -10.76027,0 -11.25255,-0.0992 -18.65805,-3.75918 -13.72002,-6.7808 -21.79009,-18.53617 -21.79009,-31.74082 0,-16.96142 14.17696,-32.19042 28.58257,-30.70363 6.3852,0.65901 12.85341,3.85875 17.3058,8.56097 l 3.38837,3.57849 -1.67425,-3.23763 c -2.26076,-4.37184 -8.66862,-8.83219 -14.47863,-10.07822 -5.54364,-1.18889 -15.42632,0.66106 -20.55567,3.84785 -7.91981,4.92046 -13.93486,14.1136 -15.17419,23.19155 -1.48861,10.90386 4.21773,25.54325 13.13245,33.6908 8.30255,7.58807 15.05833,10.42864 26.03105,10.94517 17.19184,0.80929 30.03394,-4.15303 41.94532,-16.20807 11.90494,-12.04853 17.21059,-26.21389 16.13838,-43.08728 -2.04706,-32.21469 -22.418,-57.90874 -53.6412,-67.65814 -10.42966,-3.25664 -33.39286,-3.25018 -45.5,0.0128 -21.28232,5.73578 -42.74807,20.22692 -55.29488,37.32858 -13.34513,18.18979 -19.20512,36.73346 -19.20512,60.77374 0,25.72798 6.80264,48.84595 20.75782,70.54302 26.94883,41.89918 74.05667,64.78451 124.81896,60.63795 24.56489,-2.0066 44.76898,-7.65208 66.92322,-18.69985 18.04599,-8.9991 29.61252,-17.4864 45.52648,-33.40644 20.0621,-20.06979 33.57067,-41.33639 42.26097,-66.53166 7.85672,-22.7785 10.23506,-39.72199 9.38364,-66.84998 -1.13194,-36.06637 -8.55916,-65.419223 -24.73656,-97.760483 -31.00762,-61.989289 -87.8722,-107.3996 -155.13746,-123.88801 -21.65212,-5.30749 -32.01996,-6.44588 -58.29707,-6.40105 -35.72146,0.0609 -62.85605,4.31215 -96,15.04045 -116.29099,37.64199 -200.85422,140.34481 -215.94911,262.272193 -6.17079,49.84388 -10e-4,110.0548 16.81797,164.13556 26.76049,86.04556 83.08032,163.80866 157.24741,217.118 32.90874,23.6539 78.5352,46.6147 116.88373,58.8201 66.61734,21.2027 140.42364,25.3787 219.5,12.4193 95.14226,-15.5923 184.32115,-55.3352 259.97109,-115.85734 79.26001,-63.4103 139.381908,-146.26179 175.644958,-242.04874 l 5.3,-14 0.042,75.32034 0.042,75.3203 -9.5771,15.0317 c -43.08095,67.6184 -88.525548,117.3834 -146.922448,160.89084 -75.53592,56.2765 -169.19501,93.9943 -263,105.9138 -47.14856,5.991 -97.49934,6.1487 -142.5,0.4463 -95.56625,-12.1101 -186.01537,-48.1293 -263.0001,-104.7334 -91.4848,-67.26564 -152.31263,-169.31494 -167.90482,-281.68986 -4.5735,-32.96234 -5.232,-75.42247 -1.636,-105.5 9.3579,-78.27049 36.67435,-146.306763 83.9132,-209.000003 12.12626,-16.0934294 41.17782,-45.09966 57.6195,-57.5296 48.215,-36.45066 102.83387,-57.974577 162.50812,-64.040357 14.99223,-1.52393 47.60096,-1.52998 61.5,-0.0114 71.73169,7.83724 138.01494,38.003947 183.54618,83.535187 18.88511,18.8851106 32.95778,38.34175 44.4541,61.4615 10.97975,22.08091 17.60971,42.35173 22.15946,67.751553 2.01031,11.22297 2.29873,16.0953 2.29873,38.83312 0,22.73782 -0.28842,27.61015 -2.29873,38.83312 -6.99217,39.03511 -21.27112,72.51864 -43.881,102.89908 -50.35956,67.66711 -142.46993,90.46468 -219.05771,54.21738 -38.85259,-18.38808 -64.41632,-45.9684 -76.73612,-82.78945 -4.91386,-14.68639 -6.7774,-26.67046 -6.71145,-43.16013 0.0871,-21.77303 4.35051,-39.90684 13.8254,-58.80413 15.1554,-30.22681 37.79394,-49.34009 67.92462,-57.347453 8.68158,-2.30717 11.9235,-2.65131 24.97652,-2.65131 13.03621,0 16.29985,0.34552 24.92862,2.63916 39.52352,10.505853 64.48773,39.842003 64.81313,76.163733 0.14292,15.95204 -3.47167,28.73238 -11.7372,41.5 -10.7441,16.59624 -26.12292,25.7297 -45.00455,26.72816 -21.38991,1.13109 -41.19185,-9.20035 -49.33404,-25.73948 -7.70075,-15.64244 -5.39742,-34.54398 5.75773,-47.24899 9.24289,-10.52707 27.6924,-12.95581 40.38001,-5.31573 6.59107,3.96893 6.5167,1.9703 -0.0895,-2.40547 -13.09866,-8.67619 -30.32755,-6.01235 -43.00559,6.6493 -14.42082,14.40218 -16.19246,35.36658 -4.60473,54.48925 12.9606,21.38824 40.58033,31.38622 64.89612,23.49152 11.42276,-3.70866 19.82801,-8.97419 28.99984,-18.16715 24.77797,-24.83504 29.20355,-58.5509 11.97423,-91.22465 -22.78879,-43.216763 -73.01749,-63.438063 -119.69116,-48.185823 -46.25513,15.115473 -81.07828,55.847913 -89.37924,104.546393 -2.45289,14.39013 -1.52065,39.22158 1.99681,53.18789 7.50379,29.79422 23.10363,56.78356 46.06716,79.70095 15.71605,15.68445 27.43272,24.21079 46.03236,33.49818 15.82574,7.9023 30.09979,12.85163 46.66621,16.18086 9.61705,1.93266 14.51467,2.28048 32.33379,2.29623 23.51468,0.0208 32.75032,-1.2275 52,-7.0283 76.21155,-22.96596 136.53911,-85.03308 158.49008,-163.0602 14.51937,-51.61062 10.96451,-104.23514 -10.63211,-157.392943 -22.58138,-55.5817094 -60.79917,-104.05668 -109.35797,-138.70829 -43.40787,-30.975907 -93.75963,-50.295617 -148.40756,-56.943207 -17.3717,-2.11317 -52.64757,-2.10765 -70.18488,0.011 -85.97283,10.38607 -177.21456,58.266497 -239.55066,125.707707 -87.30072,94.45036 -127.48592,219.054943 -110.85212,343.725403 11.9109,89.27231 55.8643,184.87791 121.01762,263.23205 13.23725,15.9193 51.84417,54.6148 67.59663,67.7517 78.96156,65.8507 170.75909,108.4331 269.88097,125.1906 95.32754,16.116 191.07512,7.5172 284.12271,-25.5162 81.0506,-28.7742 153.52149,-68.9286 219.640688,-121.6976 22.5075,-17.9631 37.1666,-31.1353 60.98655,-54.8003 l 21.7501,-21.60864 0,63.26804 0,63.2678 -13.2501,10.3976 c -44.13795,34.636 -93.199348,64.9223 -143.468448,88.5649 l -15.21841,7.1576 -303.6969,0 -303.6969,0 -16.42875,-8.5305 c -38.98419,-20.2421 -75.47692,-45.0921 -109.0102,-74.2312 -16.38918,-14.2416 -47.73339,-46.1193 -61.142,-62.1828 -71.05526,-85.12414 -115.97056,-188.94764 -128.50976,-297.05566 -5.4789,-47.237 -4.5358,-103.81189 2.4923,-149.5 9.8281,-63.89094 29.315,-122.248583 56.8418,-170.224843 65.177,-113.59628 180.51632,-190.821717 311.00203,-208.231387 45.8425,-6.1164 90.7226,-4.63106 137.08529,4.53694 30.03057,5.93839 57.93042,14.60334 82.02638,25.47518 92.07142,41.54165 159.34178,126.268627 179.39201,225.944107 4.60777,22.90657 5.91329,36.705093 5.91329,62.500003 0,41.21779 -6.89269,78.78616 -20.8239,113.5 -43.701,108.89433 -162.34288,169.93152 -276.10603,142.04704 -48.46628,-11.87956 -84.96385,-36.73582 -110.92912,-75.54704 -30.67463,-45.85048 -38.41299,-103.08654 -20.98073,-155.18209 15.13404,-45.22743 52.39707,-78.483593 99.5081,-88.808063 11.81791,-2.58992 35.6492,-3.1177 48.13114,-1.06594 38.13026,6.26779 65.63826,26.26053 80.82761,58.745293 6.78631,14.51358 8.47166,22.82742 8.47571,41.8108 0.003,12.8217 -0.39768,17.94903 -1.79617,23 -6.05907,21.88383 -16.47528,37.00599 -32.82913,47.66106 -12.74315,8.30257 -26.22477,12.32493 -41.30916,12.32493 -29.19866,0 -51.35826,-15.10774 -60.11709,-40.98599 -2.60739,-7.7036 -2.59966,-25.33603 0.0145,-33 2.75938,-8.08986 5.98292,-13.12379 12.12195,-18.92982 11.95191,-11.30363 30.30154,-14.50472 45.54802,-7.94587 6.58955,2.83475 14.19847,11.17072 16.53425,18.11415 4.12411,12.25946 0.82307,26.54379 -7.53298,32.59688 -4.88325,3.53741 -12.68446,5.61365 -18.27506,4.8638 -2.62301,-0.35183 -3.69423,-0.19982 -3.06018,0.43423 1.87674,1.87674 12.53502,1.28052 16.89792,-0.94527 5.76165,-2.93937 12.88765,-11.22369 14.92145,-17.3469 2.27774,-6.85761 1.5981,-17.71255 -1.48574,-23.7299 -3.18524,-6.21522 -10.74533,-13.39723 -18.19177,-17.28201 -6.14358,-3.20509 -6.79309,-3.326 -17.87523,-3.32761 -10.91293,-0.002 -11.85202,0.16503 -18.3956,3.26392 -4.85809,2.30067 -8.84706,5.25771 -13.5,10.00757 -29.01118,29.61553 -17.60619,76.0632 23.3956,95.28032 11.82925,5.54425 21.27738,7.32543 35.3899,6.67177 21.07122,-0.97597 37.33843,-8.82127 53.74668,-25.92081 34.39405,-35.84307 36.38311,-92.10972 4.65785,-131.76141 -19.54399,-24.426913 -46.67353,-40.961613 -78.29447,-47.718293 -12.01356,-2.56702 -40.08573,-2.5357 -52,0.058 -29.09643,6.33425 -53.43068,20.57888 -76.5,44.781063 -26.20823,27.49524 -42.97225,63.50026 -47.52023,102.06187 -1.71942,14.57868 -0.80398,39.01332 1.99136,53.15286 7.1846,36.3414 23.95861,67.0395 52.99478,96.98565 35.9026,37.02776 82.77015,61.13553 134.53409,69.20163 14.01084,2.1833 42.44203,2.9472 57,1.5316 33.30108,-3.2381 67.72566,-14.1351 95.34987,-30.18265 55.59244,-32.29498 102.8423,-87.17014 128.04332,-148.70724 32.85616,-80.2298 32.183,-167.277173 -1.90904,-246.8621124 -10.62048,-24.7925506 -27.50814,-52.2551006 -47.56236,-77.3454106 -13.8922,-17.38088 -46.13832,-49.614387 -63.42179,-63.397007 -65.88325,-52.53828 -144.03823,-83.92061 -228,-91.55105 -17.24124,-1.56688 -60.55007,-1.30972 -77.77844,0.46184 -79.74194,8.19969 -151.28246,36.58524 -216.0538,85.7249 -109.72768,83.246437 -184.81548,203.642077 -211.58888,339.26131 -3.2104,16.26249 -6.0172,35.32378 -8.2459,56 -2.4386,22.62247 -2.4401,83.35377 0,106 7.1106,66.06562 22.5398,123.36322 48.6051,180.50002 39.2209,85.97464 110.6121,174.32044 195.75932,242.25004 l 13.47473,10.75 -63.9343,0 -63.93425,0 -9.9737,-11.25 z m 428.14725,-568.32966 c -3.18382,-3.27591 -5.00758,-6.33614 -6.40653,-10.75 -1.55835,-4.91683 -1.96708,-5.54656 -2.01183,-3.09971 -0.0822,4.49398 4.86291,13.54238 8.84171,16.17827 1.86884,1.23807 3.53955,2.25104 3.7127,2.25104 0.17315,0 -1.68808,-2.06082 -4.13605,-4.5796 z m 38.48393,-24.9204 c 0.006,-2.2 -0.46408,-4.675 -1.04463,-5.5 -0.80497,-1.14393 -0.95654,-0.69713 -0.63848,1.88216 0.38816,3.14784 -0.3416,8.92301 -1.72079,13.61784 -0.32314,1.1 0.30808,0.2 1.40273,-2 1.09464,-2.2 1.99517,-5.8 2.00117,-8 z m -21.99364,6.56574 c 0.56935,-1.06384 1.03518,-2.1567 1.03518,-2.42857 0,-0.82991 -3.0873,-3.63717 -4,-3.63717 -0.47143,0 -1.56429,0.70714 -2.42857,1.57143 -0.86429,0.86428 -1.57143,1.95714 -1.57143,2.42857 0,1.3534 3.0014,4 4.53624,4 0.76637,0 1.85923,-0.87042 2.42858,-1.93426 z m -19.9387,-17.08434 c 1.69897,-1.20977 2.85037,-2.43824 2.55867,-2.72994 -1.06068,-1.06069 -7.65414,4.96414 -9.59402,8.76663 -3.09403,6.0648 -2.32422,7.09603 0.98716,1.3224 1.62754,-2.83773 4.34923,-6.14932 6.04819,-7.35909 z M -17.897232,-117.5437 c -0.135,-0.93034 -3.1922,-10.56705 -6.7935,-21.41489 -32.06055,-96.5716 -83.360748,-185.78347 -150.311248,-261.39359 -4.1396,-4.675 -8.4182,-9.5125 -9.508,-10.75 l -1.98151,-2.25 61.11961,0 61.119698,0 9.2667,12.75 c 10.82815,14.8985 25.91725,37.3067 32.92525,48.89594 l 4.9258,8.14594 -0.2584,113.85406 c -0.1422,62.61974 -0.3693,113.09288 -0.5044,112.16254 z m -1199.245568,-242.25137 0,-53.55711 86.75,0.003 86.75,0.003 -26,12.8281 c -53.045,26.17178 -93.3545,51.6277 -140.25,88.56945 l -7.25,5.71116 0,-53.55712 z"
           id="path15"
           inkscape:connector-curvature="0"
           transform="translate(617,-187)" />
        <animateTransform
           attributeName="transform"
           type="rotate"
           dur="3s"
           from="360"
           to="0"
           repeatCount="indefinite"
           id="animateTransform17" />
      </g>
    </g>
  </a>
</svg>
